PathFileType	4	(X/Y/Z)	C:/Users/opensim2020/Desktop/walking_exp_matlab/subject03_walking14_straight_04.trc	
DataRate	CameraRate	NumFrames	NumMarkers	Units	OrigDataRate	OrigDataStartFrame	OrigNumFrames	
100.00	100.00	8	47	mm	100.00	2332	177	
Frame#	Time	LFHD			RFHD			LBHD			RBHD			C7			T10			CLAV			STRN			RBAK			LSHO			LUPA			LELB			LFRM			LWRA			LWRB			LFIN			RSHO			RUPA			RELB			RFRM			RWRA			RWRB			RFIN			LASI			RASI			LPSI			RPSI			LTHI			LKNE			LTIB			LANK			LHEE			LTOE			RTHI			RKNE			RTIB			RANK			RHEE			RTOE			*39			*40			*41			*42			*43			*44			*45			*46			
		X1	Y1	Z1	X2	Y2	Z2	X3	Y3	Z3	X4	Y4	Z4	X5	Y5	Z5	X6	Y6	Z6	X7	Y7	Z7	X8	Y8	Z8	X9	Y9	Z9	X10	Y10	Z10	X11	Y11	Z11	X12	Y12	Z12	X13	Y13	Z13	X14	Y14	Z14	X15	Y15	Z15	X16	Y16	Z16	X17	Y17	Z17	X18	Y18	Z18	X19	Y19	Z19	X20	Y20	Z20	X21	Y21	Z21	X22	Y22	Z22	X23	Y23	Z23	X24	Y24	Z24	X25	Y25	Z25	X26	Y26	Z26	X27	Y27	Z27	X28	Y28	Z28	X29	Y29	Z29	X30	Y30	Z30	X31	Y31	Z31	X32	Y32	Z32	X33	Y33	Z33	X34	Y34	Z34	X35	Y35	Z35	X36	Y36	Z36	X37	Y37	Z37	X38	Y38	Z38	X39	Y39	Z39	X40	Y40	Z40	X41	Y41	Z41	X42	Y42	Z42	X43	Y43	Z43	X44	Y44	Z44	X45	Y45	Z45	X46	Y46	Z46	X47	Y47	Z47	

155	1.540	-919.97620	-922.92883	1597.08850	-1052.07312	-911.22571	1606.85706	-917.72797	-798.92517	1543.06226	-1047.51660	-792.81903	1552.65771	-978.34210	-781.40460	1383.48401	-976.35846	-769.53857	1068.75208	-988.69739	-908.26904	1316.63123	-990.08301	-963.48053	1154.89563	-1071.07776	-733.23413	1204.99060	-829.05188	-869.61340	1350.55713	-751.96906	-848.66687	1154.96106	-734.42035	-842.88599	1032.72864	-727.25568	-844.93958	901.71747	-749.25763	-830.48163	779.59570	-694.79132	-820.21075	793.85614	-699.09180	-803.70709	708.22998	-1143.99377	-845.76013	1340.06567	-1225.98633	-874.30444	1124.63171	-1242.27075	-918.49005	1025.56934	-1232.16882	-1010.19781	928.27948	-1190.17590	-1093.82471	883.22235	-1225.57031	-1071.91638	849.56940	-1215.86279	-1137.35535	819.45557	-885.77106	-961.57495	918.39191	-1119.34753	-923.58655	910.97839	-904.69098	-794.38208	931.86206	-1053.34338	-771.70728	938.87366	-833.48236	-988.94202	625.88623	-880.77771	-1067.68848	472.34137	-878.11981	-1053.93127	271.30170	-921.56812	-1062.28577	63.60627	-957.37469	-1021.19855	30.95889	-945.60425	-1213.10681	31.51929	-1162.65955	-822.21857	621.38043	-1145.74207	-804.01233	440.38174	-1132.23108	-654.78015	310.72818	-1073.37488	-507.03928	155.84596	-1016.23798	-463.78479	165.21808	-1045.65247	-580.26746	28.74153				-961.93353	-832.64862	1652.42566																		 
156	1.550	-918.66235	-934.60962	1596.81189	-1050.71167	-922.75153	1606.79285	-916.24695	-810.87671	1542.56262	-1046.07971	-804.52588	1552.17407	-976.67999	-794.15100	1383.11914	-975.34875	-782.61920	1068.35889	-987.54877	-920.88702	1316.66406	-989.18927	-976.68970	1155.24646	-1069.68835	-746.10223	1204.53418	-828.08392	-882.70471	1350.67468	-750.96429	-862.51581	1155.31104	-733.48499	-856.77899	1032.95349	-726.32855	-860.40936	902.12488	-749.02448	-847.21942	779.91144	-694.55835	-836.31061	793.75500	-699.22992	-821.77832	707.90869	-1142.66113	-858.10022	1340.19995	-1224.23999	-886.14374	1124.36243	-1240.33972	-929.81152	1024.84949	-1230.60449	-1019.74042	925.72559	-1188.85632	-1102.58154	878.75128	-1224.59546	-1080.01318	845.87427	-1214.78552	-1144.62622	814.00873	-885.32764	-975.40265	919.98804	-1118.03784	-937.10492	910.68506	-904.59711	-807.74811	932.81030	-1053.11865	-785.27765	937.79303	-833.28015	-1006.70459	628.61615	-880.99017	-1082.91687	473.15628	-877.48920	-1063.64563	271.91833	-921.67908	-1062.97437	64.46542	-956.83545	-1021.62122	31.20629	-946.63745	-1213.96045	30.63092	-1163.85437	-840.60522	619.22064	-1149.05334	-826.65930	437.57043	-1134.82080	-674.36273	312.60580	-1075.59912	-522.92010	162.16280	-1018.11932	-481.18964	175.76755	-1044.63452	-582.36047	28.60791				-960.62720	-844.14954	1651.98730																		 
157	1.560	-917.24475	-946.14282	1596.89233	-1049.36157	-934.26453	1606.61462	-915.21838	-822.43982	1542.06238	-1045.06714	-816.28320	1551.64734	-975.38379	-806.30048	1382.55396	-974.49469	-795.51489	1067.96240	-986.54553	-933.38611	1316.49658	-988.33398	-989.71381	1155.35229	-1068.42456	-758.97595	1203.86365	-827.20563	-895.58319	1350.72693	-749.81476	-876.42297	1155.68176	-732.48975	-870.62561	1033.07678	-726.07861	-874.86194	901.93799	-748.66913	-864.47150	780.09180	-694.27374	-852.84888	793.55609	-699.59625	-840.21741	707.45837	-1141.56470	-870.29395	1340.32910	-1222.64258	-898.00000	1124.08826	-1238.45520	-941.08545	1024.09460	-1229.04907	-1029.24219	923.23041	-1187.67908	-1111.12915	874.20422	-1223.62305	-1087.83228	842.00208	-1213.68811	-1151.49109	808.21155	-884.56927	-988.89697	921.54297	-1116.86340	-950.09625	910.28735	-904.53943	-820.60321	933.39563	-1052.98157	-798.37384	936.57471	-832.85059	-1025.41870	631.28491	-880.84259	-1096.80969	473.35294	-877.30194	-1072.52893	272.08664	-921.55304	-1063.51111	64.87217	-956.43921	-1021.91443	31.45518	-946.78918	-1214.73474	30.50434	-1164.77185	-859.15668	616.84479	-1151.05652	-849.55682	435.14026	-1137.15833	-695.77448	313.65176	-1078.48792	-540.51752	167.50128	-1021.90228	-499.66620	186.92131	-1044.46912	-585.19543	30.00307				-958.71655	-855.72766	1651.66394																		 
158	1.570	-916.03375	-957.51105	1596.18994	-1048.03625	-945.76221	1606.38306	-914.06335	-833.96698	1541.33044	-1043.93091	-827.92383	1551.08313	-974.48639	-818.04657	1381.79248	-974.06738	-807.95605	1067.57959	-985.57703	-945.61890	1316.25513	-987.53473	-1002.53326	1155.22791	-1067.29309	-771.40631	1203.19128	-826.38202	-908.31323	1350.65393	-748.84296	-889.93433	1155.87012	-731.30420	-884.63477	1033.29187	-724.81659	-890.90784	902.37512	-748.17548	-882.27277	780.32489	-694.05322	-869.90088	793.27252	-700.17542	-859.01599	706.81622	-1140.47205	-882.48315	1340.12061	-1221.21741	-909.79169	1123.71375	-1236.61987	-952.36670	1023.23694	-1227.61316	-1038.59619	920.41302	-1186.28687	-1119.41614	869.32489	-1222.66357	-1095.44983	838.05188	-1212.52222	-1158.15417	802.11066	-883.50092	-1002.01630	922.79492	-1115.52771	-962.69995	909.68677	-904.51349	-833.17413	933.54926	-1052.65747	-811.08167	935.09741	-832.08923	-1043.11719	633.35303	-880.50378	-1109.37292	472.95776	-877.30701	-1079.81567	271.76068	-921.58441	-1063.95410	65.03876	-956.21698	-1022.16284	31.67253	-947.11438	-1215.16174	30.30422	-1165.35278	-877.54883	614.26532	-1152.31958	-872.87653	432.56607	-1139.15393	-718.63110	313.68863	-1081.66760	-558.65881	173.29619	-1026.51965	-518.70801	197.97684	-1043.64380	-591.03455	34.25040				-957.39581	-866.91125	1651.12122																		 
159	1.580	-914.71887	-968.63190	1596.01819	-1046.73889	-957.20477	1606.22937	-913.04083	-845.27618	1540.62085	-1042.91675	-839.50665	1550.64758	-973.41058	-829.66241	1380.85461	-973.09491	-820.71069	1067.04297	-984.75574	-957.57416	1315.98279	-986.95197	-1014.88507	1155.15576	-1066.40564	-783.52979	1202.63501	-825.68494	-920.70441	1350.45056	-747.74054	-903.36713	1155.96387	-730.11865	-898.19635	1033.23657	-723.81946	-906.61926	902.44995	-747.44183	-901.95209	780.75336	-693.80853	-887.35571	792.83777	-700.34918	-878.75360	706.31519	-1139.34912	-894.59637	1339.68469	-1219.97900	-921.37225	1123.16907	-1235.25012	-963.52319	1022.19208	-1226.30762	-1047.89111	917.47705	-1184.75562	-1127.51343	864.22607	-1221.74561	-1103.06335	833.99548	-1211.14197	-1164.45972	795.79926	-882.48639	-1014.73651	923.69861	-1114.64246	-975.03864	909.00739	-904.15063	-845.66193	933.04565	-1052.18347	-823.36914	933.53113	-831.25525	-1057.83313	634.26373	-879.95410	-1120.48132	471.88055	-877.22693	-1085.85083	271.44308	-921.82074	-1064.70703	65.21243	-956.20685	-1022.42883	31.90840	-947.38586	-1215.50488	30.09418	-1165.42920	-895.60785	611.63654	-1153.10767	-896.41901	429.99582	-1141.72363	-742.72156	312.82465	-1083.76563	-577.13019	179.79333	-1029.86133	-537.79480	208.02034	-1045.10535	-601.80182	40.62438				-956.35254	-877.90955	1650.44177																		 
160	1.590	-913.37805	-980.12384	1595.56213	-1045.42603	-968.55981	1606.18713	-912.14056	-856.54327	1540.14673	-1042.02917	-850.94049	1550.35596	-972.46246	-840.78882	1380.42310	-972.33368	-833.13312	1066.55713	-984.03766	-969.40656	1315.80115	-986.50513	-1026.97839	1155.00989	-1065.79016	-795.21954	1202.32410	-824.86627	-932.80231	1350.18689	-746.81543	-916.39020	1155.81531	-728.74646	-911.86365	1033.11560	-722.94360	-922.20160	902.32983	-747.07135	-921.17688	780.66730	-693.56372	-905.17908	792.28278	-700.70959	-898.79199	705.69171	-1138.61133	-906.46600	1339.25134	-1218.95801	-932.88007	1122.44250	-1234.14050	-974.71582	1021.00568	-1225.10815	-1057.20874	914.41974	-1183.43372	-1135.78552	859.26166	-1220.85840	-1110.64392	829.88953	-1209.57971	-1170.73718	789.46759	-881.54974	-1027.14600	924.26129	-1112.57361	-989.44128	909.27643	-903.59900	-857.96802	932.42548	-1051.36780	-835.36389	931.76514	-830.44971	-1068.32141	633.85614	-879.44043	-1129.72058	470.09396	-877.15808	-1090.98621	270.93735	-922.10760	-1065.77588	65.22986	-955.93982	-1022.40601	32.20189	-947.62280	-1215.73694	29.98583	-1164.53015	-913.17383	609.11035	-1153.69775	-920.65320	427.46350	-1144.21667	-767.20697	312.03107	-1084.78882	-596.08478	187.09616	-1030.15125	-557.40289	215.96002	-1049.21362	-618.06805	47.00436				-955.21814	-888.94720	1650.06567																		 
161	1.600	-912.20966	-991.01074	1595.35535	-1044.20520	-979.88739	1606.19995	-911.21185	-867.74500	1539.61194	-1041.24268	-862.35901	1550.22498	-971.67664	-852.42444	1379.88123	-971.37183	-845.36383	1066.26746	-983.40533	-980.88953	1315.68286	-986.28003	-1038.93787	1155.09802	-1065.30750	-806.56152	1202.19324	-824.11768	-944.65375	1349.92041	-745.84821	-929.35846	1155.62036	-727.67456	-925.32977	1032.77551	-721.97479	-938.12195	902.21210	-746.37805	-940.85016	780.82849	-693.35608	-923.45020	791.78772	-701.15894	-919.27771	705.10779	-1137.84729	-918.15430	1338.70105	-1218.07043	-944.14789	1121.59180	-1233.32410	-985.72827	1019.63177	-1224.07251	-1066.46021	911.36511	-1182.12439	-1143.74121	854.17004	-1220.04431	-1118.30762	825.80353	-1207.80383	-1176.92200	783.19995	-880.88391	-1039.23157	924.44299	-1112.87427	-1000.00214	908.07367	-902.38879	-870.38043	931.66949	-1050.30627	-847.15265	930.01685	-829.76001	-1077.20764	632.30945	-878.80884	-1138.16333	468.28168	-877.16681	-1095.91223	270.42276	-922.12689	-1066.44958	65.38346	-955.89044	-1022.46509	32.55756	-947.80457	-1215.96643	29.89277	-1163.73438	-930.36694	607.43829	-1154.38452	-945.30206	425.75647	-1144.87903	-791.65314	312.77234	-1084.90002	-616.56348	194.26816	-1028.82300	-577.70703	221.76514	-1054.09924	-638.32056	52.99392				-953.99426	-900.04266	1649.88513																		 
162	1.610	-910.96631	-1002.06909	1595.33630	-1043.05432	-991.13989	1606.32312	-910.64111	-878.69696	1539.46362	-1040.50977	-873.69360	1550.22131	-970.92737	-863.49750	1380.02649	-970.48804	-857.60486	1065.73926	-982.82068	-992.10547	1315.60559	-986.01300	-1050.36194	1154.96375	-1064.70227	-817.81549	1202.02283	-823.50537	-956.12726	1349.62122	-745.02881	-942.00598	1155.30359	-726.39081	-939.43604	1032.37341	-720.94427	-954.42297	902.26709	-745.84912	-961.00562	781.17584	-693.29706	-941.96729	791.32550	-701.59180	-940.27069	704.69293	-1137.26709	-929.63147	1338.17493	-1217.37146	-955.36462	1120.75806	-1232.62048	-996.63470	1018.14081	-1223.17712	-1075.70032	908.42352	-1180.88806	-1151.63098	849.34290	-1219.38623	-1125.84949	821.87408	-1206.31714	-1183.46008	777.69092	-880.29840	-1051.20789	924.35626	-1112.87817	-1011.20245	907.38849	-901.09113	-882.51758	931.32050	-1048.95642	-858.82703	928.55817	-829.97314	-1085.11780	629.97461	-878.58624	-1145.97827	466.39621	-877.21887	-1100.83704	269.84552	-922.14069	-1066.90588	65.41488	-955.68347	-1022.57050	32.78730	-947.98499	-1216.12207	29.83477	-1162.94971	-947.19086	606.72168	-1155.07813	-970.12048	425.23721	-1144.21558	-815.70221	315.05142	-1084.56189	-638.41895	200.62753	-1027.27258	-599.35876	225.88908	-1059.40991	-661.62000	58.16086				-952.94702	-911.05432	1649.75476																		 
